<?xml version="1.0" encoding="UTF-8"?>
<svg width="196px" height="60px" viewBox="0 0 196 60" version="1.1" xmlns="http://www.w3.org/2000/svg" xmlns:xlink="http://www.w3.org/1999/xlink">
    <!-- Generator: Sketch 41.2 (35397) - http://www.bohemiancoding.com/sketch -->
    <title>open-falcon-logo</title>
    <desc>Created with Sketch.</desc>
    <defs></defs>
    <g id="Page-1" stroke="none" stroke-width="1" fill="none" fill-rule="evenodd">
        <g id="Desktop-HD" transform="translate(-165.000000, -10.000000)" fill="#FFFFFF">
            <g id="header">
                <g id="open-falcon-logo" transform="translate(165.000000, 10.000000)">
                    <g id="text" transform="translate(74.886792, 15.692308)">
                        <path d="M34.8091437,20.3684273 L30.3099633,20.3684273 C27.8192381,20.3684273 25.7999588,18.3537773 25.7999588,15.8684273 C25.7999588,13.3832273 27.8138261,11.3684273 30.3045513,11.3684273 C32.7952764,11.3684273 34.8091437,13.3832273 34.8091437,15.8684273 L34.8091437,20.3684273 Z M30.3045513,8.36842731 C26.1532425,8.36842731 22.7907335,11.7263273 22.7907335,15.8684273 C22.7907335,20.0105273 26.1588048,23.3684273 30.3099633,23.3684273 L37.8158133,23.3684273 L37.8158133,15.8684273 C37.8158133,11.7263273 34.45586,8.36842731 30.3045513,8.36842731 Z M88.9291971,8.36842731 C84.7778883,8.36842731 81.412523,11.7263273 81.412523,15.8684273 C81.412523,20.0105273 84.7778883,23.3684273 88.9291971,23.3684273 C93.0805058,23.3684273 96.4458711,20.0105273 96.4458711,15.8684273 C96.4458711,11.7263273 93.0805058,8.36842731 88.9291971,8.36842731 Z M88.9291971,20.3684273 C86.4384719,20.3684273 84.4191926,18.3536273 84.4191926,15.8684273 C84.4191926,13.3832273 86.4384719,11.3684273 88.9291971,11.3684273 C91.4199222,11.3684273 93.4392015,13.3832273 93.4392015,15.8684273 C93.4392015,18.3536273 91.4199222,20.3684273 88.9291971,20.3684273 Z M51.8256009,19.8876623 L51.7968872,19.9385123 L51.7968872,19.8855623 C50.5942194,18.9527123 49.8460097,17.5184123 49.8460097,15.8684123 L49.842552,15.8684123 L49.842552,2.37831231 C49.8040666,1.32246231 48.5412654,0.568412308 46.9878695,0.568412308 C46.9372071,0.568412308 46.8358824,0.571712308 46.8358824,0.573362308 L46.8358824,2.37831231 L46.8358824,16.0184123 L46.842497,16.0184123 C46.9051861,19.2570623 48.9839975,22.1258123 51.7968872,23.3291123 L51.7968872,23.3126123 L51.915801,23.3795123 C51.9416584,23.3367623 51.9688687,23.2953623 51.9938241,23.2512623 C52.7575182,21.9017123 52.6776911,20.4119123 51.8256009,19.8876623 Z M120.499228,15.8684273 C120.499228,11.8184273 117.133863,8.36962731 112.982554,8.36962731 C108.831997,8.36962731 105.467383,11.8184273 105.46588,15.8684273 L105.46588,21.5684273 L105.46588,23.3778773 C105.516091,23.3795273 105.565401,23.3687273 105.616214,23.3687273 C107.162694,23.3687273 108.423391,22.6184273 108.47255,21.5684273 L108.47255,15.8684273 C108.47255,13.4684273 110.491829,11.3696273 112.982554,11.3696273 C115.472377,11.3696273 117.491055,13.4684273 117.492559,15.8684273 L117.492559,21.5684273 C117.541718,22.6184273 118.802565,23.3687273 120.348895,23.3687273 C120.399707,23.3687273 120.449167,23.3795273 120.499228,23.3778773 L120.499228,21.5684273 L120.499228,15.8684273 Z M67.2757487,8.36842731 C63.2167447,8.36842731 59.7629833,11.7290273 59.7629833,15.8711273 C59.7629833,20.0124773 63.2221567,23.3684273 67.2811607,23.3696273 L67.2811607,23.3684273 L70.5830853,23.3684273 L72.3965581,23.3684273 C72.3982117,23.3684273 72.390244,23.2716773 72.390244,23.2211273 C72.390244,21.6780773 71.6408316,20.4174773 70.5884973,20.3684273 L67.2757487,20.3684273 C64.870413,20.3684273 62.7696529,18.3563273 62.7696529,15.8711273 C62.7696529,13.3866773 64.875825,11.3711273 67.2811607,11.3697773 L67.2811607,11.3684273 L70.5884973,11.3684273 L70.5884973,11.3687273 C71.6408316,11.3196773 72.390244,10.0640273 72.390244,8.52112731 C72.390244,8.47057731 72.3982117,8.36842731 72.3965581,8.36842731 L70.5830853,8.36842731 L67.2757487,8.36842731 Z M15.2640322,8.36842731 L6.2458273,8.36842731 C6.2458273,5.88322731 8.26495629,3.86842731 10.7558317,3.86842731 L12.5598335,3.86842731 C13.5601525,3.83002731 14.3638353,2.56822731 14.3638353,1.01842731 C14.3638353,0.967877308 14.360528,0.868427308 14.3588743,0.868427308 L10.7558317,0.868427308 C6.60437266,0.868427308 3.23915767,4.22632731 3.23915767,8.36842731 L2.03648982,8.36842731 L2.03648982,8.37862731 C0.984155448,8.46217731 0.279993421,9.69862731 0.279993421,11.2185773 L0.279993421,11.3684273 L1.97680743,11.3684273 L2.03648982,11.3684273 L3.23915767,11.3684273 L3.23915767,21.5684273 L3.23915767,23.3399273 C3.23915767,23.3415773 3.34063277,23.3399273 3.39114482,23.3399273 C4.94439035,23.3399273 6.20734193,22.4684273 6.2458273,21.5684273 L6.2458273,11.3684273 L13.4618344,11.3684273 C14.5141688,11.3204273 15.2658362,10.0620773 15.2658362,8.51842731 C15.2658362,8.46787731 15.2640322,8.36842731 15.2640322,8.36842731 Z" id="Combined-Shape"></path>
                    </g>
                    <g id="brand">
                        <path d="M30.114803,0 C30.0277599,0 29.9402659,0.00195 29.8532228,0.0027 L29.8532228,0.0027 C29.77084,0.00345 29.6883069,0.00435 29.6062249,0.00585 L29.6062249,0.00585 C26.3687933,0.06915 23.0865624,0.65445 19.8737856,1.81605 L19.8737856,1.81605 C15.2795944,3.4773 11.3390532,6.1317 8.20640409,9.44535 L8.20640409,9.44535 C4.77053237,13.0917 2.31107661,17.53695 1.01174433,22.3386 L1.01174433,22.3386 C0.989494976,22.42185 0.96679462,22.5051 0.945296932,22.58865 L0.945296932,22.58865 C0.906961894,22.73775 0.869378524,22.88715 0.833298488,23.03685 L0.833298488,23.03685 C0.796316452,23.1906 0.759935749,23.3445 0.725509382,23.499 L0.725509382,23.499 C0.705515029,23.5884 0.686272343,23.67795 0.666879324,23.76765 L0.666879324,23.76765 C0.619373944,23.98995 0.572920898,24.2124 0.530376523,24.43605 L0.530376523,24.43605 C0.523310849,24.4728 0.516094842,24.5094 0.509179502,24.5463 L0.509179502,24.5463 C0.483021476,24.6861 0.458066118,24.8265 0.434012761,24.9669 L0.434012761,24.9669 C0.422437083,25.0347 0.411011739,25.1025 0.399887061,25.1703 L0.399887061,25.1703 C0.37869004,25.2978 0.358244687,25.4256 0.338851667,25.55355 L0.338851667,25.55355 C0.325922988,25.63785 0.314196976,25.7226 0.302170298,25.80705 L0.302170298,25.80705 C0.285332948,25.92405 0.268194931,26.0412 0.252860916,26.15865 L0.252860916,26.15865 C0.231212895,26.3241 0.211519209,26.48985 0.192727523,26.6559 L0.192727523,26.6559 C0.180400178,26.7642 0.169125167,26.8728 0.158150823,26.98125 L0.158150823,26.98125 C0.144921476,27.10995 0.131992797,27.23865 0.120417119,27.36735 L0.120417119,27.36735 C0.114403779,27.4344 0.109142108,27.5016 0.103880436,27.56865 L0.103880436,27.56865 C0.0844874166,27.8103 0.0664473988,28.05225 0.0526167185,28.29555 L0.0526167185,28.29555 C0.0452503779,28.4256 0.0386357048,28.55565 0.0330733659,28.686 L0.0330733659,28.686 C0.0306680302,28.7346 0.028713695,28.78335 0.0264586928,28.83195 L0.0264586928,28.83195 C0.0254063584,28.85745 0.0239030236,28.8825 0.0231513562,28.90785 L0.0231513562,28.90785 C0.0157850156,29.10615 0.0102226767,29.3046 0.00676500667,29.50335 L0.00676500667,29.50335 C0.00661467319,29.51775 0.00601333926,29.53185 0.00586300578,29.54595 L0.00586300578,29.54595 C0.00360800356,29.68815 0.0500610494,29.83005 0.0499107159,29.9727 L0.0499107159,29.9727 C0.0499107159,30.0753 0.102828101,30.17805 0.102828101,30.28065 L0.102828101,30.28065 L0.102828101,30.2844 C0.102828101,30.4293 0.0553227212,30.57405 0.0587803913,30.71835 L0.0587803913,30.71835 C0.0589307248,30.7272 0.0345767008,30.7359 0.0348773677,30.74475 L0.0348773677,30.74475 C0.0345767008,30.7362 0.0217983548,30.7278 0.0214976879,30.71925 L0.0214976879,30.71925 C0.0217983548,30.7278 0.015935349,30.7362 0.016236016,30.74475 L0.016236016,30.74475 C0.0204453535,30.9057 0.0236023566,31.0671 0.0303673633,31.2282 L0.0303673633,31.2282 C0.0332236994,31.29765 0.0339753668,31.3671 0.0372827034,31.4364 L0.0372827034,31.4364 C0.0336746999,31.3602 0.0305176968,31.28385 0.0275110271,31.20765 L0.0275110271,31.20765 C0.0211970209,31.0533 0.0141313473,30.89895 0.0100723433,30.74475 L0.0100723433,30.74475 C0.0141313473,30.9057 0.0204453535,31.0671 0.0272103602,31.2282 L0.0272103602,31.2282 C0.0300666963,31.29855 0.0318706981,31.3689 0.0351780347,31.4394 L0.0351780347,31.4394 C0.0392370387,31.5198 0.0457013784,31.6005 0.0503617163,31.6809 L0.0503617163,31.6809 C0.0607347265,31.8642 0.0708070698,32.0475 0.0846377501,32.23095 L0.0846377501,32.23095 C0.100422766,32.43735 0.119815785,32.6439 0.140110805,32.8506 L0.140110805,32.8506 C0.145372477,32.90535 0.149281147,32.9601 0.154993819,33.015 L0.154993819,33.015 C0.17964851,33.2556 0.207911205,33.4962 0.238729569,33.73695 L0.238729569,33.73695 C0.241285238,33.75675 0.24308924,33.7767 0.245644909,33.7965 L0.245644909,33.7965 C0.262331925,33.92445 0.282326278,34.0524 0.300666963,34.1805 L0.300666963,34.1805 C0.283528946,34.0542 0.267443264,33.9282 0.252710582,33.8019 L0.252710582,33.8019 C0.251658248,33.7932 0.250756247,33.78435 0.249703913,33.7755 L0.249703913,33.7755 C0.220388884,33.52365 0.195433526,33.2721 0.175138506,33.02025 L0.175138506,33.02025 C0.173935838,33.00795 0.173334504,32.99565 0.172432503,32.9832 L0.172432503,32.9832 C0.152588484,32.73405 0.137104135,32.4849 0.126731125,32.2359 L0.126731125,32.2359 C0.126731125,32.23455 0.127482792,32.23305 0.128986127,32.2317 L0.128986127,32.2317 C0.128986127,32.23305 0.128986127,32.23455 0.129136461,32.2359 L0.129136461,32.2359 C0.139509471,32.4849 0.153791152,32.73405 0.173484838,32.9832 L0.173484838,32.9832 C0.174386839,32.99565 0.174687506,33.00795 0.175589506,33.02025 L0.175589506,33.02025 C0.195884526,33.2721 0.220689551,33.52365 0.25000458,33.7755 L0.25000458,33.7755 C0.250906581,33.78435 0.251808582,33.7932 0.252860916,33.8019 L0.252860916,33.8019 C0.282326278,34.0524 0.316301645,34.30275 0.354185683,34.55325 L0.354185683,34.55325 C0.363957359,34.61745 0.372977368,34.6818 0.383350378,34.7463 L0.383350378,34.7463 C0.396880391,34.83075 0.41236474,34.9152 0.426796754,34.9998 L0.426796754,34.9998 C0.728516052,36.7608 1.22927688,38.51955 1.86639017,40.25805 L1.86639017,40.25805 C3.37844433,44.3853 5.6812526,47.98035 8.57321779,50.93265 L8.57321779,50.93265 C8.61230449,50.9724 8.65169186,51.012 8.6909289,51.0516 L8.6909289,51.0516 C8.84396839,51.2061 8.99896221,51.3585 9.15530903,51.5094 L9.15530903,51.5094 C9.20657274,51.5589 9.25753579,51.6087 9.30925051,51.65775 L9.30925051,51.65775 C9.50528537,51.84435 9.70312423,52.02885 9.9041201,52.2099 L9.9041201,52.2099 C9.35044189,45.63375 13.2451314,39.24225 19.7876445,36.8766 L19.7876445,36.8766 C24.1277721,35.30745 28.7216627,35.8398 32.441364,37.9494 L32.441364,37.9494 C32.3944599,37.2618 32.2514928,36.5691 32.0022399,35.88885 L32.0022399,35.88885 C31.2668085,33.8814 29.7571597,32.3775 27.9309085,31.5846 L27.9309085,31.5846 C27.8253744,30.6606 27.6128029,29.7342 27.2786116,28.82205 L27.2786116,28.82205 C26.0509884,25.4712 23.4759261,22.99605 20.3832658,21.77595 L20.3832658,21.77595 C21.1367372,21.2079 21.987324,20.7408 22.9228493,20.40255 L22.9228493,20.40255 C25.7270197,19.3887 28.6964066,19.74615 31.0891143,21.12855 L31.0891143,21.12855 C33.8066927,16.1916 38.2729501,12.1776 44.0138851,10.1019 L44.0138851,10.1019 C46.4262864,9.22965 48.8876965,8.7654 51.3224976,8.66955 L51.3224976,8.66955 C51.2952872,8.6427 51.2685279,8.61555 51.2411672,8.5887 L51.2411672,8.5887 C51.2065905,8.55495 51.1720138,8.52135 51.1372867,8.48775 L51.1372867,8.48775 C50.9836459,8.3391 50.8282011,8.19195 50.6714033,8.04645 L50.6714033,8.04645 C50.6629846,8.03865 50.6544156,8.03085 50.6459969,8.0229 L50.6459969,8.0229 C45.2197099,3.012 38.0623329,0.12045 30.5975238,0.0051 L30.5975238,0.0051 C30.4805644,0.0033 30.3636049,0.00105 30.2460442,0.00045 L30.2460442,0.00045 C30.2123695,0.00045 30.1785444,0.00015 30.1447194,0 L30.1447194,0 L30.114803,0 Z M0.253161583,31.44945 L0.253161583,31.4427 L0.253161583,31.4394 L0.253161583,31.45005 L0.253161583,31.45095 L0.253161583,31.45095 L0.253161583,31.44945 L0.253161583,31.44945 Z M0.197087194,32.1975 C0.195583859,32.15715 0.195884526,32.1168 0.197688528,32.07645 L0.197688528,32.07645 C0.236925567,32.95935 0.328779324,33.84435 0.471596132,34.7289 L0.471596132,34.7289 C0.463478124,34.6776 0.420031747,34.62645 0.412214406,34.57515 L0.412214406,34.57515 C0.289692619,33.79125 0.184759849,33.00705 0.141764473,32.22435 L0.141764473,32.22435 C0.162510494,32.21535 0.197538195,32.20635 0.197087194,32.1975 L0.197087194,32.1975 Z M0,29.99985 C0,30.09345 0.00255566919,30.1863 0.00360800356,30.2796 L0.00360800356,30.2796 C0.00255566919,30.1773 0.000300666963,30.075 0.000451000445,29.9727 L0.000451000445,29.9727 C0.000451000445,29.98185 0,29.99085 0,29.99985 L0,29.99985 Z" id="Fill-14"></path>
                        <path d="M44.7054191,17.5158 C40.2421683,18.69105 36.1966944,20.64585 32.6746815,23.1918 L32.6746815,23.1918 C37.2693237,29.88795 40.4215162,41.12625 29.8930611,51.678 L29.8930611,51.678 C26.7438754,54.83415 22.8905276,56.8731 18.8307719,57.7989 L18.8307719,57.7989 C18.921423,57.8355 19.0126754,57.8706 19.1037775,57.9063 L19.1037775,57.9063 C19.226149,57.9543 19.3480694,58.00335 19.4710422,58.04985 L19.4710422,58.04985 C19.6993988,58.13595 19.928958,58.2198 20.1598702,58.30065 L20.1598702,58.30065 C20.1628769,58.3017 20.1660339,58.30275 20.1693412,58.3038 L20.1693412,58.3038 C20.3903314,58.38105 20.6122237,58.4562 20.8353185,58.5282 L20.8353185,58.5282 C20.8423842,58.5306 20.8496002,58.5327 20.8568162,58.53495 L20.8568162,58.53495 C21.0361641,58.593 21.2161133,58.64925 21.3966638,58.7037 L21.3966638,58.7037 C21.4598038,58.7229 21.5233949,58.74075 21.5866853,58.7595 L21.5866853,58.7595 C21.7055991,58.7946 21.8245129,58.83 21.9441783,58.86375 L21.9441783,58.86375 C22.0070177,58.88145 22.0703081,58.89795 22.1332978,58.9152 L22.1332978,58.9152 C22.2547673,58.9488 22.3762367,58.98225 22.4980068,59.01405 L22.4980068,59.01405 C22.5552839,59.02905 22.6128616,59.043 22.6701387,59.0577 L22.6701387,59.0577 C22.7994255,59.09085 22.9285619,59.12355 23.0584501,59.15475 L23.0584501,59.15475 C23.1085111,59.1669 23.1585722,59.17815 23.2087835,59.19 L23.2087835,59.19 C23.347391,59.2227 23.4859985,59.25495 23.6249066,59.2857 L23.6249066,59.2857 C23.6668497,59.295 23.7090934,59.3037 23.7511867,59.31285 L23.7511867,59.31285 C23.8998666,59.34495 24.048847,59.3766 24.1981282,59.40645 L24.1981282,59.40645 C24.2316526,59.4132 24.2653273,59.4195 24.2988516,59.4261 L24.2988516,59.4261 C24.4579044,59.4576 24.6174083,59.4879 24.7772128,59.5167 L24.7772128,59.5167 C24.8024688,59.52135 24.8278751,59.52555 24.8531312,59.5302 L24.8531312,59.5302 C25.0222563,59.56035 25.1916822,59.589 25.3614087,59.6163 L25.3614087,59.6163 C25.3792984,59.61915 25.397188,59.62185 25.4149274,59.6247 L25.4149274,59.6247 C25.5924712,59.6529 25.7701654,59.67945 25.9484609,59.7045 L25.9484609,59.7045 C25.9612393,59.7063 25.9741679,59.70795 25.987247,59.7099 L25.987247,59.7099 C26.1702028,59.73525 26.353309,59.75895 26.5370165,59.781 L26.5370165,59.781 C26.5473895,59.78235 26.5577625,59.78355 26.5682859,59.78475 L26.5682859,59.78475 C26.7533464,59.8068 26.9385572,59.82735 27.1242191,59.84595 L27.1242191,59.84595 C27.1357948,59.847 27.1473704,59.8482 27.1590964,59.84955 L27.1590964,59.84955 C27.3361893,59.86695 27.5137331,59.883 27.6914273,59.89755 L27.6914273,59.89755 C27.717886,59.8995 27.744044,59.9019 27.7705027,59.90385 L27.7705027,59.90385 C27.9363205,59.91705 28.1025894,59.9286 28.2693092,59.9391 L28.2693092,59.9391 C28.2948659,59.94075 28.3204226,59.9424 28.3461296,59.9439 L28.3461296,59.9439 C28.3563523,59.9445 28.366575,59.94525 28.3767976,59.94585 L28.3767976,59.94585 C28.5203661,59.9544 28.6642353,59.9613 28.8084051,59.96775 L28.8084051,59.96775 C28.8736498,59.9709 28.9390449,59.97375 29.0045903,59.9763 L29.0045903,59.9763 C29.0546513,59.97825 29.105013,59.9793 29.1550741,59.9811 L29.1550741,59.9811 C29.3198396,59.9862 29.4846051,59.9916 29.6499719,59.99415 L29.6499719,59.99415 C29.8138354,59.99715 29.9776989,59.9997 30.1420134,60 L30.1420134,60 C30.2337168,60 30.3255706,59.9979 30.4174243,59.99715 L30.4174243,59.99715 C30.5644505,59.9958 30.7114766,59.99505 30.8579014,59.9916 L30.8579014,59.9916 C31.0219153,59.98785 31.1850271,59.98095 31.3482892,59.9745 L31.3482892,59.9745 C31.4272143,59.9712 31.5059891,59.96925 31.5847638,59.9655 L31.5847638,59.9655 C33.1420683,59.89035 34.7070399,59.69145 36.2676518,59.3664 L36.2676518,59.3664 C42.4334292,53.235 45.5232332,44.2701 43.7336635,35.1222 L43.7336635,35.1222 C43.278153,32.79315 42.5326493,30.59355 41.543455,28.551 L41.543455,28.551 C47.9031626,34.98195 50.8570651,44.1219 49.3980787,53.0694 L49.3980787,53.0694 C49.4216811,53.04975 49.4455841,53.0307 49.4690361,53.01135 L49.4690361,53.01135 C49.5308232,52.9599 49.5921592,52.90785 49.653345,52.8561 L49.653345,52.8561 C49.7736117,52.7541 49.8934275,52.6515 50.0120406,52.5477 L50.0120406,52.5477 C50.0801417,52.48815 50.1476414,52.4283 50.2151412,52.3683 L50.2151412,52.3683 C50.3292443,52.26675 50.4424454,52.16445 50.5550452,52.0614 L50.5550452,52.0614 C50.6196886,52.00185 50.6841816,51.94215 50.748374,51.882 L50.748374,51.882 C50.8657845,51.77235 50.9825936,51.66165 51.0983504,51.54975 L51.0983504,51.54975 C51.1515684,51.4986 51.2044858,51.44715 51.2572529,51.39555 L51.2572529,51.39555 C51.3868403,51.2688 51.5150748,51.1407 51.6424072,51.0117 L51.6424072,51.0117 C51.6763826,50.9772 51.710358,50.9427 51.7440327,50.90805 L51.7440327,50.90805 C51.8934642,50.75505 52.0410916,50.6004 52.1872158,50.44425 L52.1872158,50.44425 C52.1951835,50.43585 52.2031511,50.42745 52.2109685,50.4189 L52.2109685,50.4189 C54.9395212,47.4903 57.0414839,44.0547 58.4141789,40.33905 L58.4141789,40.33905 C56.7326989,35.0931 53.2366938,30.3921 48.1618865,27.2565 L48.1618865,27.2565 C45.1415365,25.39005 41.8675739,24.267 38.5561783,23.8362 L38.5561783,23.8362 C46.0764604,22.18275 53.7505337,23.5011 60.1333926,27.1542 L60.1333926,27.1542 C59.8945127,24.67695 59.3403835,22.18905 58.4455986,19.74195 L58.4455986,19.74195 C58.0269199,18.5967 57.5438984,17.49345 57.0049529,16.43235 L57.0049529,16.43235 C56.0109479,16.34985 55.0088249,16.30785 54.0017409,16.30785 L54.0017409,16.30785 C50.9320815,16.30785 47.8128121,16.69755 44.7054191,17.5158 M30.8164094,59.76075 L30.8182134,59.76075 C30.8314427,59.76075 30.8446721,59.81775 30.8579014,59.81745 L30.8579014,59.81745 C30.7114766,59.8209 30.5644505,59.87955 30.4174243,59.88105 L30.4174243,59.88105 C30.5503191,59.8797 30.6832139,59.76075 30.8164094,59.76075 M29.6466646,59.76075 L29.6489196,59.76075 C29.4846051,59.76075 29.3198396,59.8695 29.1550741,59.86425 L29.1550741,59.86425 C29.1803301,59.86515 29.2055861,59.8512 29.2309925,59.8374 L29.2309925,59.8374 C29.2562485,59.82375 29.2815045,59.80995 29.3067606,59.81055 L29.3067606,59.81055 C29.3100679,59.8107 29.3132249,59.8107 29.3165322,59.8107 L29.3165322,59.8107 C29.4267267,59.8107 29.5364701,59.76075 29.6466646,59.76075" id="Fill-17"></path>
                    </g>
                </g>
            </g>
        </g>
    </g>
</svg>